<?xml version="1.0" standalone="no"?>
<!DOCTYPE svg PUBLIC "-//W3C//DTD SVG 20010904//EN"
 "http://www.w3.org/TR/2001/REC-SVG-20010904/DTD/svg10.dtd">
<svg version="1.0" xmlns="http://www.w3.org/2000/svg"
 width="249.000000pt" height="332.000000pt" viewBox="0 0 249.000000 332.000000"
 preserveAspectRatio="xMidYMid meet">

<g transform="translate(0.000000,332.000000) scale(0.100000,-0.100000)"
fill="#000000" stroke="none">
<path d="M790 2943 c-47 -19 -370 -218 -375 -231 -8 -20 -18 -739 -10 -752 3
-5 34 2 73 17 37 14 121 45 187 70 l120 44 120 -16 c66 -9 147 -20 180 -25 33
-5 112 -16 175 -24 286 -39 435 -59 564 -77 112 -15 141 -17 148 -7 17 28 5
734 -13 752 -7 7 -67 23 -244 62 -66 15 -147 33 -180 40 -33 8 -81 18 -106 23
-25 6 -84 19 -130 30 -404 95 -474 109 -509 94z m18 -56 c4 -31 -14 -43 -53
-33 -32 8 -33 39 -2 54 34 17 52 10 55 -21z m261 -7 c97 -23 295 -68 441 -101
409 -93 413 -94 418 -107 5 -15 -28 -30 -222 -97 -87 -31 -168 -55 -180 -53
-18 3 -22 11 -27 68 -9 110 -14 113 -234 158 -300 62 -401 85 -412 94 -7 6
-13 26 -13 44 0 30 3 34 27 34 14 0 105 -18 202 -40z m-336 -37 c79 -25 78
-23 75 -132 l-3 -96 -33 2 c-38 1 -62 18 -62 44 0 26 -35 46 -110 60 -67 12
-94 25 -84 40 4 8 153 98 162 99 2 0 27 -7 55 -17z m425 -93 c331 -72 325 -68
320 -184 l-3 -71 -55 0 c-30 1 -93 8 -140 17 -47 9 -148 29 -225 43 -77 14
-157 30 -177 36 l-38 10 0 104 c0 99 1 105 21 105 11 0 145 -27 297 -60z
m-593 -44 c98 -18 112 -23 120 -43 7 -19 -13 -35 -35 -28 -8 2 -55 11 -105 20
-98 17 -127 33 -105 60 7 8 20 13 29 11 9 -3 52 -12 96 -20z m5 -76 c173 -33
173 -60 4 -142 -64 -31 -123 -54 -130 -51 -11 4 -14 29 -14 102 0 54 3 101 7
104 9 10 17 9 133 -13z m1378 -114 c2 -72 -1 -112 -8 -116 -7 -4 -33 -3 -58 2
-81 16 -154 29 -243 43 -86 13 -137 31 -124 43 12 13 390 141 410 139 18 -2
20 -10 23 -111z m-1138 -131 l0 -164 -26 -20 c-15 -12 -35 -21 -45 -21 -18 0
-19 11 -19 175 l0 175 32 20 c54 32 58 20 58 -165z m133 169 c29 -5 41 -13 48
-32 10 -27 5 -315 -7 -333 -8 -13 -112 -2 -131 13 -10 8 -13 57 -13 183 0 94
3 175 7 179 4 4 19 4 33 2 14 -3 42 -8 63 -12z m300 -54 c115 -21 215 -44 223
-51 12 -10 14 -42 12 -173 l-3 -161 -45 1 c-75 2 -391 53 -406 65 -19 15 -20
329 -2 347 7 7 12 12 13 12 0 0 94 -18 208 -40z m-545 -161 c2 -125 -1 -169
-10 -176 -27 -21 -229 -95 -243 -89 -12 4 -15 32 -15 166 l0 161 113 55 c61
29 121 53 132 51 19 -2 20 -10 23 -168z m927 91 c127 -21 145 -28 145 -55 0
-20 -7 -26 -42 -35 -24 -6 -79 -22 -122 -35 -99 -31 -106 -26 -106 65 0 69 6
80 40 74 8 -2 47 -8 85 -14z m323 -222 l3 -157 -26 -7 c-36 -9 -95 2 -114 21
-20 20 -30 250 -11 269 14 15 88 35 120 33 l25 -2 3 -157z m-194 116 c13 -5
16 -26 16 -129 0 -90 -3 -124 -12 -128 -7 -2 -44 2 -83 10 -38 7 -84 13 -100
13 -17 0 -41 7 -53 16 -18 13 -22 25 -22 74 0 70 10 83 83 103 61 18 151 44
154 46 1 1 8 -2 17 -5z m-782 -164 c71 -10 78 -14 78 -52 0 -27 -3 -30 -22
-24 -13 3 -31 6 -40 6 -12 0 -19 8 -19 23 l-2 22 -4 -22 c-5 -24 -10 -26 -58
-23 -38 2 -39 4 -40 43 0 36 12 50 35 40 8 -3 40 -9 72 -13z"/>
<path d="M780 2039 c-25 -3 -65 -14 -90 -23 -72 -28 -100 -36 -190 -61 -46
-12 -86 -27 -88 -34 -7 -20 27 -12 194 50 182 68 189 68 384 40 36 -5 137 -19
225 -31 88 -12 207 -28 265 -36 58 -8 141 -18 185 -23 44 -6 126 -17 182 -25
126 -19 123 -19 123 -1 0 12 -14 15 -66 15 -61 0 -108 5 -274 31 -36 6 -119
17 -185 26 -66 8 -163 21 -215 28 -354 48 -391 52 -450 44z"/>
<path d="M665 1960 c-38 -17 -82 -30 -97 -30 -31 0 -83 -18 -75 -26 5 -5 99
-20 324 -50 72 -9 137 -20 144 -24 31 -20 -52 -62 -136 -70 -57 -5 -60 -7 -63
-32 -2 -16 -7 -28 -12 -28 -5 0 -7 -13 -3 -30 6 -35 -9 -40 -30 -10 -19 28
-49 16 -45 -18 2 -21 31 -41 167 -121 91 -53 166 -102 169 -109 2 -6 -20 -22
-50 -36 -158 -71 -231 -110 -216 -113 18 -5 31 -30 22 -44 -9 -15 -51 -10 -58
7 -3 9 -4 20 0 25 7 12 0 11 -31 -3 -57 -26 -21 -74 115 -151 52 -30 96 -62
98 -70 2 -10 -23 -28 -77 -54 -59 -29 -78 -42 -69 -51 12 -12 4 -42 -13 -42
-6 0 -13 9 -16 20 -6 22 -11 24 -33 10 -26 -16 -1 -39 125 -108 154 -86 156
-98 14 -94 -89 3 -107 1 -119 -13 -13 -16 21 -17 560 -10 316 4 583 12 593 17
28 15 19 36 -19 47 -20 6 -78 35 -130 66 -97 58 -116 62 -176 41 -72 -26 -37
-1 115 83 216 119 227 127 227 155 0 15 -11 33 -27 46 l-27 21 -8 -20 c-9 -25
-19 -22 -108 32 -105 63 -141 89 -137 101 3 6 11 10 18 8 11 -3 12 -1 2 9 -7
7 -13 18 -13 24 0 7 64 47 143 90 78 42 145 82 149 89 12 18 9 31 -4 18 -18
-18 -30 -14 -26 9 3 19 -14 31 -107 82 -110 60 -128 74 -119 89 3 5 51 31 107
59 104 52 167 93 167 109 0 4 -35 11 -77 15 -76 6 -205 22 -408 50 -55 7 -156
21 -224 30 -69 8 -143 20 -165 25 -23 5 -93 9 -156 9 -105 0 -121 -2 -185 -29z
m945 -169 c0 -5 -28 -23 -62 -40 -35 -17 -94 -49 -133 -71 -38 -22 -111 -60
-160 -84 -79 -38 -91 -47 -100 -76 -12 -41 -30 -49 -45 -20 -14 26 -2 43 49
70 25 13 30 19 17 20 -20 0 -176 87 -188 104 -11 16 -1 24 64 57 38 19 69 28
82 25 40 -10 169 -90 173 -107 4 -15 28 -6 146 57 146 76 157 80 157 65z
m-646 -193 c76 -42 95 -58 96 -75 0 -13 -4 -23 -9 -23 -22 0 -206 117 -209
133 -6 28 22 20 122 -35z m595 -15 c91 -50 122 -73 115 -84 -3 -5 -31 -22 -63
-38 -31 -16 -64 -37 -71 -47 -27 -31 -134 -99 -237 -149 -40 -20 -73 -40 -73
-45 0 -4 -13 -11 -30 -15 -23 -5 -30 -12 -30 -30 0 -54 -29 -74 -50 -35 -9 17
-6 25 17 48 16 15 38 33 48 39 11 7 -13 -3 -52 -23 l-73 -35 -47 27 c-61 35
-84 54 -77 66 8 13 161 88 180 88 9 0 41 -14 71 -31 43 -25 54 -36 50 -51 -5
-18 -4 -18 31 3 20 12 80 44 132 72 89 48 93 52 65 57 -36 8 -172 87 -179 105
-4 13 164 113 193 114 8 1 44 -15 80 -36z m-332 -150 c90 -50 123 -73 123 -88
0 -20 -2 -20 -68 17 -69 39 -122 77 -122 89 0 15 17 10 67 -18z m332 -268 c61
-36 111 -72 111 -80 0 -12 -38 -36 -163 -102 -26 -14 -31 -12 -148 57 -85 51
-119 77 -117 89 4 20 144 98 180 100 16 1 69 -24 137 -64z m-688 7 c13 -10 48
-32 76 -48 29 -16 53 -33 53 -37 0 -21 -34 -15 -82 16 -29 19 -65 41 -80 51
-16 9 -28 21 -28 26 0 16 36 11 61 -8z m987 -75 c2 -12 -3 -17 -17 -17 -15 0
-21 6 -21 21 0 25 33 22 38 -4z m-597 -94 c43 -26 77 -52 75 -58 -2 -5 -10 -9
-17 -7 -27 7 -158 86 -163 99 -10 25 26 13 105 -34z m359 13 c0 -3 -22 -17
-50 -32 -27 -15 -50 -31 -50 -35 0 -14 -278 -164 -288 -154 -3 3 -15 -3 -26
-13 -18 -16 -96 -46 -96 -37 0 10 486 275 505 275 3 0 5 -2 5 -4z m-465 -85
c55 -31 100 -64 100 -71 0 -8 -22 -28 -49 -45 -44 -27 -58 -30 -125 -30 -72 0
-80 3 -148 44 -40 24 -73 50 -73 57 0 13 162 103 185 103 6 0 55 -26 110 -58z
m378 -121 c75 -47 65 -61 -40 -54 -113 8 -131 22 -71 58 23 14 48 26 54 26 5
0 31 -13 57 -30z"/>
<path d="M1600 1277 c0 -7 72 -48 76 -44 2 2 -14 14 -36 26 -22 12 -40 20 -40
18z"/>
<path d="M524 631 c-3 -20 -15 -43 -26 -52 -11 -8 -30 -40 -42 -70 -15 -39
-27 -55 -43 -57 -21 -3 -21 -4 -5 -47 9 -24 13 -47 9 -51 -4 -4 -31 -6 -59 -5
-29 1 -50 0 -47 -3 5 -6 165 -29 314 -46 55 -6 113 -13 128 -15 15 -3 94 0
175 5 140 9 314 17 830 40 287 12 356 19 323 32 -14 5 -31 6 -38 4 -18 -7 -16
2 7 31 26 33 25 73 0 124 -23 44 -19 73 11 89 49 27 -10 39 -106 22 -33 -6
-40 -12 -45 -37 -11 -53 -39 -94 -83 -122 -42 -27 -44 -27 -287 -36 -135 -4
-254 -5 -265 -2 -24 6 -125 142 -125 168 0 15 -11 17 -85 19 -47 1 -95 2 -107
2 -21 1 -23 -4 -26 -56 -2 -42 -7 -58 -17 -58 -10 0 -15 17 -17 63 l-3 62
-140 7 c-77 4 -159 11 -182 16 l-43 9 -6 -36z m360 -21 c25 -25 -12 -30 -165
-20 -118 8 -158 14 -169 27 -14 14 0 15 155 9 93 -3 174 -11 179 -16z m250
-46 c9 -8 16 -22 16 -30 0 -8 4 -14 8 -14 30 0 43 -121 16 -158 -20 -29 -66
-52 -103 -52 -32 0 -91 42 -91 65 0 8 -12 25 -27 39 -25 23 -26 27 -15 63 6
22 25 52 42 68 26 25 34 28 49 18 15 -10 20 -9 25 2 7 20 60 19 80 -1z m-357
-5 c9 -9 4 -26 -18 -70 -34 -69 -56 -83 -112 -74 -86 15 -94 32 -47 108 l30
47 68 0 c38 0 73 -5 79 -11z m1201 -23 c12 -21 30 -36 44 -38 39 -5 32 -88 -7
-88 -18 0 -51 63 -64 119 -11 50 0 53 27 7z m-1106 -58 c-20 -20 -36 5 -21 33
l12 24 10 -23 c7 -16 7 -26 -1 -34z m1058 -16 c-3 -21 -3 -50 1 -67 10 -35 9
-37 -15 -20 -27 20 -34 99 -11 125 24 26 34 10 25 -38z"/>
<path d="M1051 528 c-1 -10 -10 -32 -21 -50 -11 -18 -20 -42 -20 -53 0 -64 80
-89 119 -39 24 30 26 52 9 89 -14 30 -28 32 -35 5 -8 -31 -26 -19 -40 26 -6
21 -12 31 -12 22z"/>
<path d="M656 508 c-34 -48 -12 -65 29 -23 14 13 25 29 25 35 0 19 -39 10 -54
-12z"/>
<path d="M1293 623 l-132 -4 61 -80 61 -81 91 6 c50 3 167 8 259 12 l169 6 31
45 c18 25 40 58 50 74 l19 29 -239 -2 c-131 -1 -297 -4 -370 -5z"/>
<path d="M2076 490 c8 -56 14 -64 14 -19 0 19 -5 41 -10 49 -7 10 -8 1 -4 -30z"/>
</g>
</svg>
